<?xml version="1.0" encoding="utf-8"?>
<!-- Generator: Adobe Illustrator 22.1.0, SVG Export Plug-In . SVG Version: 6.00 Build 0)  -->
<svg version="1.1" id="Layer_1" xmlns="http://www.w3.org/2000/svg" xmlns:xlink="http://www.w3.org/1999/xlink" x="0px" y="0px"
	 viewBox="0 0 102.5 102.5" style="enable-background:new 0 0 102.5 102.5;" xml:space="preserve">
<style type="text/css">
	.st0{fill:url(#SVGID_1_);}
	.st1{fill:url(#SVGID_2_);}
	.st2{fill:url(#SVGID_3_);}
</style>
<g>
	
		<linearGradient id="SVGID_1_" gradientUnits="userSpaceOnUse" x1="31.5245" y1="83.8326" x2="70.6412" y2="83.8326" gradientTransform="matrix(1 0 0 -1 0 104)">
		<stop  offset="0" style="stop-color:#FFCA6F"/>
		<stop  offset="9.347606e-02" style="stop-color:#FCB469"/>
		<stop  offset="0.2539" style="stop-color:#F89461"/>
		<stop  offset="0.421" style="stop-color:#F57B5B"/>
		<stop  offset="0.5953" style="stop-color:#F36A57"/>
		<stop  offset="0.7814" style="stop-color:#F15F54"/>
		<stop  offset="1" style="stop-color:#F15C53"/>
	</linearGradient>
	<path class="st0" d="M43.9,38.7c-13.8-5.1-16.5-18.6-6.6-27.9c7.2-6.9,21-9.9,33.3-9c0,4.2,0,8.7,0,13.2
		C42.4,15.3,41.5,30,43.9,38.7z"/>
	
		<linearGradient id="SVGID_2_" gradientUnits="userSpaceOnUse" x1="25.7759" y1="21.967" x2="64.892" y2="21.967" gradientTransform="matrix(1 0 0 -1 0 104)">
		<stop  offset="0" style="stop-color:#F15C53"/>
		<stop  offset="0.2186" style="stop-color:#F15F54"/>
		<stop  offset="0.4047" style="stop-color:#F36A57"/>
		<stop  offset="0.579" style="stop-color:#F57B5B"/>
		<stop  offset="0.7461" style="stop-color:#F89461"/>
		<stop  offset="0.9065" style="stop-color:#FCB469"/>
		<stop  offset="1" style="stop-color:#FFCA6F"/>
	</linearGradient>
	<path class="st1" d="M52.6,63.5c13.8,5.1,16.5,18.6,6.6,27.9c-7.2,6.9-21,9.9-33.3,9c0-4.2,0-8.7,0-13.2
		C54.1,87.2,55,72.5,52.6,63.5z"/>
	
		<linearGradient id="SVGID_3_" gradientUnits="userSpaceOnUse" x1="48.1877" y1="104.1719" x2="48.1877" y2="1.4732" gradientTransform="matrix(1 0 0 -1 0 104)">
		<stop  offset="0" style="stop-color:#6CA0D6"/>
		<stop  offset="0.4012" style="stop-color:#5A7BBE"/>
		<stop  offset="0.7822" style="stop-color:#4B5EAB"/>
		<stop  offset="1" style="stop-color:#4653A4"/>
	</linearGradient>
	<path class="st2" d="M68.7,51.2c-1.5-1.2-3.6-2.1-5.7-3c-4.8-2.1-23.1-7.2-29.1-12c-4.2-3.3-6.6-9.3-5.7-14.7
		C31,6.3,47.2,1.2,55.6,0C45.4-0.3,36.4,2.1,27.4,9c-11.7,9.6-16.2,31.2,0,42.2l0,0c1.5,1.2,3.6,2.1,5.7,3c4.8,2.1,23.1,7.2,29.1,12
		c4.2,3.3,6.6,9.3,5.7,14.7c-2.7,15.3-18.9,20.4-27.3,21.6c10.2,0.3,19.2-2.1,28.2-9C80.7,83.6,85.2,62.3,68.7,51.2z"/>
</g>
</svg>
