<?xml version="1.0" encoding="UTF-8" standalone="no"?>
<svg
   xmlns:dc="http://purl.org/dc/elements/1.1/"
   xmlns:cc="http://creativecommons.org/ns#"
   xmlns:rdf="http://www.w3.org/1999/02/22-rdf-syntax-ns#"
   xmlns:svg="http://www.w3.org/2000/svg"
   xmlns="http://www.w3.org/2000/svg"
   xmlns:sodipodi="http://sodipodi.sourceforge.net/DTD/sodipodi-0.dtd"
   xmlns:inkscape="http://www.inkscape.org/namespaces/inkscape"
   version="1.1"
   id="Layer_1"
   x="0px"
   y="0px"
   viewBox="0 0 49.700001 49.7"
   xml:space="preserve"
   sodipodi:docname="app-icon.png.svg"
   width="49.700001"
   height="49.700001"
   inkscape:version="1.0.2 (e86c870879, 2021-01-15)"><metadata
   id="metadata93"><rdf:RDF><cc:Work
       rdf:about=""><dc:format>image/svg+xml</dc:format><dc:type
         rdf:resource="http://purl.org/dc/dcmitype/StillImage" /><dc:title></dc:title></cc:Work></rdf:RDF></metadata><defs
   id="defs91">
	
	
	
</defs><sodipodi:namedview
   pagecolor="#ffffff"
   bordercolor="#666666"
   borderopacity="1"
   objecttolerance="10"
   gridtolerance="10"
   guidetolerance="10"
   inkscape:pageopacity="0"
   inkscape:pageshadow="2"
   inkscape:window-width="1920"
   inkscape:window-height="1056"
   id="namedview89"
   showgrid="false"
   inkscape:zoom="7.6470588"
   inkscape:cx="18.731383"
   inkscape:cy="25.097388"
   inkscape:window-x="3286"
   inkscape:window-y="0"
   inkscape:window-maximized="0"
   inkscape:current-layer="Layer_1" />
<style
   type="text/css"
   id="style2">
	.st0{fill-rule:evenodd;clip-rule:evenodd;fill:#F48120;}
	.st1{fill-rule:evenodd;clip-rule:evenodd;fill:#005495;}
	.st2{fill:#005495;}
	.st3{fill:#F48120;}
</style>
<g
   id="g10"
   transform="matrix(1.2783272,0,0,1.2783272,2.9257722,-5.7933047)">
		<path
   class="st0"
   d="m 16.4,20 c -4.6,-1.7 -5.5,-6.2 -2.2,-9.3 2.4,-2.3 7,-3.3 11.1,-3 0,1.4 0,2.9 0,4.4 -9.4,0.1 -9.7,5 -8.9,7.9 z"
   id="path4" />
		<path
   class="st0"
   d="m 19.3,28.3 c 4.6,1.7 5.5,6.2 2.2,9.3 -2.4,2.3 -7,3.3 -11.1,3 0,-1.4 0,-2.9 0,-4.4 9.4,0 9.7,-4.9 8.9,-7.9 z"
   id="path6" />
		<path
   class="st1"
   d="m 24.7,24.2 c -0.5,-0.4 -1.2,-0.7 -1.9,-1 -1.6,-0.7 -7.7,-2.4 -9.7,-4 -1.4,-1.1 -2.2,-3.1 -1.9,-4.9 0.9,-5.1 6.3,-6.8 9.1,-7.2 -3.4,-0.1 -6.4,0.7 -9.4,3 -3.9,3.2 -5.4,10.4 0,14.1 v 0 c 0.5,0.4 1.2,0.7 1.9,1 1.6,0.7 7.7,2.4 9.7,4 1.4,1.1 2.2,3.1 1.9,4.9 -0.9,5.1 -6.3,6.8 -9.1,7.2 3.4,0.1 6.4,-0.7 9.4,-3 4,-3.3 5.5,-10.4 0,-14.1 z"
   id="path8" />
	</g>
</svg>
